<?xml version="1.0" encoding="UTF-8" standalone="no"?>
<!-- Generator: Adobe Illustrator 19.0.0, SVG Export Plug-In . SVG Version: 6.00 Build 0)  -->

<svg
   xmlns:dc="http://purl.org/dc/elements/1.1/"
   xmlns:cc="http://creativecommons.org/ns#"
   xmlns:rdf="http://www.w3.org/1999/02/22-rdf-syntax-ns#"
   xmlns:svg="http://www.w3.org/2000/svg"
   xmlns="http://www.w3.org/2000/svg"
   xmlns:xlink="http://www.w3.org/1999/xlink"
   xmlns:sodipodi="http://sodipodi.sourceforge.net/DTD/sodipodi-0.dtd"
   xmlns:inkscape="http://www.inkscape.org/namespaces/inkscape"
   version="1.1"
   id="Layer_1"
   x="0px"
   y="0px"
   viewBox="0 0 700.00002 700.00001"
   xml:space="preserve"
   sodipodi:docname="ame-logo.svg"
   width="700"
   height="700"
   inkscape:version="0.92.4 (5da689c313, 2019-01-14)"><metadata
   id="metadata25"><rdf:RDF><cc:Work
       rdf:about=""><dc:format>image/svg+xml</dc:format><dc:type
         rdf:resource="http://purl.org/dc/dcmitype/StillImage" /><dc:title></dc:title></cc:Work></rdf:RDF></metadata><defs
   id="defs23"><linearGradient
     inkscape:collect="always"
     id="linearGradient885"><stop
       style="stop-color:#ee2e60;stop-opacity:1;"
       offset="0"
       id="stop881" /><stop
       style="stop-color:#ee2e60;stop-opacity:0;"
       offset="1"
       id="stop883" /></linearGradient><radialGradient
     inkscape:collect="always"
     xlink:href="#linearGradient885"
     id="radialGradient889"
     cx="88.231171"
     cy="215.45229"
     fx="88.231171"
     fy="215.45229"
     r="55.200001"
     gradientTransform="matrix(7.9964033,-0.34198302,0.27323441,6.3888971,-665.9707,-1139.1207)"
     gradientUnits="userSpaceOnUse" /></defs><sodipodi:namedview
   pagecolor="#ffffff"
   bordercolor="#666666"
   borderopacity="1"
   objecttolerance="10"
   gridtolerance="10"
   guidetolerance="10"
   inkscape:pageopacity="0"
   inkscape:pageshadow="2"
   inkscape:window-width="1600"
   inkscape:window-height="837"
   id="namedview21"
   showgrid="false"
   inkscape:zoom="0.59460822"
   inkscape:cx="94.517872"
   inkscape:cy="316.83334"
   inkscape:window-x="-8"
   inkscape:window-y="-8"
   inkscape:window-maximized="1"
   inkscape:current-layer="Layer_1" />
<style
   type="text/css"
   id="style2">
	.st0{fill:none;stroke:#EE2D60;stroke-width:0.5;stroke-miterlimit:10;}
	.st1{fill:#2C2A7A;}
	.st2{fill:#EE2E60;}
</style>
<g
   id="g18"
   transform="matrix(1.7446994,0,0,1.7446994,3.938874,3.4154642)">
	<path
   class="st0"
   d="M 156.9,205.1"
   id="path4"
   inkscape:connector-curvature="0"
   style="fill:none;stroke:#ee2d60;stroke-width:0.5;stroke-miterlimit:10" />
	<path
   class="st1"
   d="m 199.1,172.7 c -14.3,0 -19.7,3.5 -23.2,13.7 -0.1,0.4 0.1,0.8 0.5,0.9 l 10.3,2.9 c 0.4,0.1 0.7,-0.1 0.8,-0.5 0.4,-1.5 1.9,-5 5.6,-5 4,0 8.9,0 11,0 2.1,0 3.9,1.5 3.9,3.3 0,1.8 0,6.7 0,6.7 0,0 -9.2,0 -17.3,0 -8.7,0 -17,7 -17,17.6 0,9.9 5.5,17.5 24.2,17.5 16.8,0 22.9,-6.5 22.9,-15.4 0,-8.9 0,-19.2 0,-24.6 0.1,-5.3 -2.6,-17.1 -21.7,-17.1 z m 8.8,42 c 0,1.2 -0.7,3.4 -4.4,3.4 -3.7,0 -9.7,0 -12.2,0 -2.6,0 -5,-2.7 -5,-5.9 0,-3.2 1.6,-5.9 5.5,-5.9 3.9,0 16.2,0 16.2,0 0,0 -0.1,7.2 -0.1,8.4 z"
   id="path6"
   inkscape:connector-curvature="0"
   style="fill:#2c2a7a" />
	<path
   class="st1"
   d="m 324.9,229.7 c 14.3,0 19.7,-3.5 23.2,-13.7 0.1,-0.4 -0.1,-0.8 -0.5,-0.9 l -10.3,-2.9 c -0.4,-0.1 -0.7,0.1 -0.8,0.5 -0.4,1.5 -1.9,5 -5.6,5 -4,0 -8.9,0 -11,0 -2.1,0 -3.9,-1.5 -3.9,-3.3 0,-1.8 0,-6.7 0,-6.7 0,0 9.2,0 17.3,0 8.7,0 17,-7 17,-17.6 0,-9.9 -5.5,-17.5 -24.2,-17.5 -16.8,0 -22.9,6.5 -22.9,15.4 0,8.9 0,19.2 0,24.6 -0.1,5.3 2.6,17.1 21.7,17.1 z m -9.7,-41.6 c 0,-1.2 0.7,-3.3 4.2,-3.3 3.5,0 9.8,0 12.3,0 3.3,0 4.8,2.1 4.8,5.2 0,3.1 -0.6,5.7 -5.3,5.7 -3.7,0 -16,0 -16,0 0,0 0,-6.5 0,-7.6 z"
   id="path8"
   inkscape:connector-curvature="0"
   style="fill:#2c2a7a" />
	<path
   class="st1"
   d="m 262.2,204.4 c 9,0 16.5,-12.7 18,-15.3 0.2,-0.3 0.5,-0.5 0.8,-0.5 v 0 c 0.5,0 0.9,0.4 0.9,0.9 v 39.3 c 0,0.6 0.5,1 1,1 h 11 c 0.6,0 1,-0.5 1,-1 v -45.9 -0.1 c 0,-5.6 -4.5,-10.2 -10.2,-10.2 v 0 c -5.5,0 -8.4,2.3 -11.8,6.5 -3.3,4.2 -8.8,13.3 -10.8,13.3 -1.9,0 -7.5,-9.2 -10.8,-13.3 -3.3,-4.2 -6.2,-6.5 -11.8,-6.5 v 0 c -5.6,0 -10.2,4.5 -10.2,10.2 v 0.1 45.9 c 0,0.6 0.5,1 1,1 h 11 c 0.6,0 1,-0.5 1,-1 v -39.3 c 0,-0.5 0.4,-0.9 0.9,-0.9 v 0 c 0.3,0 0.6,0.2 0.8,0.5 1.6,2.7 9.2,15.3 18.2,15.3 z"
   id="path10"
   inkscape:connector-curvature="0"
   style="fill:#2c2a7a" />
	<g
   id="g16">
		<path
   class="st2"
   d="m 101.6,239.3 v 0 c 2.8,0 5.4,-1.1 7.4,-3.1 l 44.9,-44.9 c 1.8,-1.8 2.9,-4.3 2.9,-6.9 v -0.5 c 0,-2.6 -1,-5.1 -2.9,-6.9 l -17.3,-17 c -1.3,-1.3 -3,-2 -4.8,-2 H 101.6 71.4 c -1.8,0 -3.5,0.7 -4.8,2 l -17.3,17 c -1.9,1.8 -2.9,4.3 -2.9,6.9 v 0.5 c 0,2.6 1,5.1 2.9,6.9 l 44.9,44.9 c 1.9,2 4.6,3.1 7.4,3.1 z"
   id="path12"
   inkscape:connector-curvature="0"
   style="fill:url(#radialGradient889);fill-opacity:1" />
		<path
   class="st1"
   d="m 70.7,158 v 0.1 c 2,0 3.9,0.7 5.3,2 l 20.3,18.3 c 1.1,1 2.5,1.5 4,1.5 h 1.2 1.2 c 1.5,0 2.9,-0.6 4,-1.5 L 127,160.1 c 1.5,-1.3 3.4,-2 5.3,-2 0,0 0,-0.1 0,-0.1 -0.2,0 -0.4,0 -0.7,0 h -30.2 -30 c -0.3,0 -0.5,0 -0.7,0 z"
   id="path14"
   inkscape:connector-curvature="0"
   style="fill:#2c2a7a" />
	</g>
</g>
</svg>